<?xml version="1.0" encoding="UTF-8"?>
<svg width="133px" height="22px" viewBox="0 0 133 22" version="1.1" xmlns="http://www.w3.org/2000/svg" xmlns:xlink="http://www.w3.org/1999/xlink">
    <!-- Generator: Sketch 46.2 (44496) - http://www.bohemiancoding.com/sketch -->
    <title>Page 1 Copy</title>
    <desc>Created with Sketch.</desc>
    <defs>
        <linearGradient x1="4.20715086%" y1="49.7500002%" x2="99.199819%" y2="49.7500002%" id="linearGradient-1">
            <stop stop-color="#3065AF" offset="0%"></stop>
            <stop stop-color="#11C1F2" offset="71.125883%"></stop>
            <stop stop-color="#5AC7D9" offset="100%"></stop>
        </linearGradient>
    </defs>
    <g id="HOME" stroke="none" stroke-width="1" fill="none" fill-rule="evenodd">
        <g id="1680---Home" transform="translate(-100.000000, -71.000000)">
            <g id="Page-1-Copy" transform="translate(100.000000, 71.000000)">
                <g id="Group-11" transform="translate(38.000000, 0.064877)" fill="#FFFFFF">
                    <path d="M5.91487593,7.04168868 C6.20427407,7.90214544 6.50886049,8.7925456 6.8274037,9.71164151 C7.14594691,10.6315692 7.45012284,11.5261281 7.73952099,12.3969819 C8.02932963,13.2674198 8.29984506,14.0937744 8.55065679,14.8764615 C8.80187901,15.6591486 9.02354568,16.353669 9.21688827,16.9600228 L9.2747679,16.9600228 C9.44881728,16.353669 9.66596852,15.6591486 9.9266321,14.8764615 C10.1872957,14.0937744 10.4672525,13.2674198 10.7665025,12.3969819 C11.0657525,11.5261281 11.3748543,10.6315692 11.6933975,9.71164151 C12.0119407,8.7925456 12.3161167,7.90214544 12.6059253,7.04168868 C13.3008914,5.00678538 14.0344438,2.89411242 14.8069932,0.703253931 L18.3117895,0.703253931 L10.8100148,21.2444237 L7.45012284,21.2444237 L0.0641074074,0.703253931 L3.71339753,0.703253931 C4.48635741,2.89411242 5.21949938,5.00678538 5.91487593,7.04168868 Z" id="Fill-1"></path>
                    <path d="M24.6703389,18.9554175 C25.0853481,18.8185928 25.4523296,18.6177225 25.7708728,18.3540542 C26.089416,18.0895542 26.3451537,17.7718215 26.5384963,17.4000244 C26.7314284,17.0286431 26.8283049,16.5977909 26.8283049,16.1087154 L26.8283049,14.9646281 C25.1288605,14.9646281 23.7578111,15.1505267 22.7151568,15.521908 C21.6725025,15.8937052 21.1511753,16.5391517 21.1511753,17.4586635 C21.1511753,18.0263404 21.3634006,18.4513703 21.7882617,18.7354167 C22.2131228,19.0190472 22.7537432,19.1608624 23.4101228,19.1608624 C23.834984,19.1608624 24.2549191,19.0922421 24.6703389,18.9554175 M26.9727988,20.5399222 C26.9149191,20.2076336 26.8857741,19.8454017 26.8857741,19.4540582 C26.4420302,20.0999206 25.8767802,20.6230983 25.191666,21.0240071 C24.5061414,21.4253318 23.6129068,21.6257862 22.5123728,21.6257862 C21.1220302,21.6257862 20.007129,21.2735354 19.1668481,20.5694497 C18.3269778,19.8649481 17.9066321,18.8967783 17.9066321,17.6641085 C17.9066321,16.7250503 18.1533389,15.9473538 18.645521,15.3314347 C19.1381136,14.7150998 19.7944932,14.2210338 20.6150704,13.8492366 C21.4356475,13.4778553 22.3818358,13.2133553 23.4536352,13.0569843 C24.5254346,12.9006132 25.6501877,12.8224277 26.8283049,12.8224277 L26.8283049,11.9420086 C26.8283049,11.1984143 26.6251105,10.5970511 26.2195426,10.1375031 C25.8143852,9.67753931 25.1772988,9.44755739 24.3082833,9.44755739 C23.4392679,9.44755739 22.7923296,9.66298349 22.3674685,10.0934198 C21.9426074,10.5234403 21.7205302,11.0320621 21.701237,11.6192854 L18.5153944,11.1497563 C18.5921568,10.465217 18.7998667,9.86343789 19.1381136,9.34483491 C19.47595,8.8266478 19.9102525,8.39122091 20.4414315,8.03938601 C20.9722,7.68713522 21.5805519,7.41806053 22.2660765,7.23216195 C22.9516012,7.04626336 23.6711969,6.95352201 24.4240426,6.95352201 C25.2540611,6.95352201 26.0122432,7.06123506 26.6977679,7.27624528 C27.3828821,7.4912555 27.9723512,7.80898821 28.4645333,8.22985928 C28.9571259,8.65031447 29.3429901,9.17390802 29.6233574,9.79980818 C29.9029037,10.4261242 30.0428821,11.1593215 30.0428821,12.0006478 L30.0428821,19.3367799 C30.0428821,19.7672162 30.0720272,20.1240417 30.1299068,20.4080881 C30.1877864,20.6917186 30.2649593,20.9703585 30.3618358,21.2444237 L27.1755827,21.2444237 C27.0984099,21.1071832 27.0306784,20.8726266 26.9727988,20.5399222" id="Fill-3"></path>
                    <polygon id="Fill-5" points="33.9534105 21.2444237 37.2554228 21.2444237 37.2554228 0.703253931 33.9534105 0.703253931"></polygon>
                    <path d="M50.3471383,21.2444237 L50.3471383,19.1608624 C49.9226877,19.8849104 49.3722154,20.4762925 48.6961321,20.9362563 C48.0204593,21.3958042 47.1514438,21.6257862 46.0894963,21.6257862 C45.4331167,21.6257862 44.814913,21.5280542 44.2357062,21.3321745 C43.6564994,21.1367107 43.1495395,20.8430991 42.715237,20.4517555 C42.2809346,20.0608278 41.9381722,19.576327 41.6865395,18.9995008 C41.4357278,18.4222586 41.3105272,17.742294 41.3105272,16.9600228 L41.3105272,7.33488443 L44.5833944,7.33488443 L44.5833944,16.1382429 C44.5833944,17.1359403 44.8391321,17.8454324 45.3506074,18.2654717 C45.8624932,18.6863428 46.4371846,18.8967783 47.074271,18.8967783 C47.4798389,18.8967783 47.870629,18.8086116 48.2474623,18.6326942 C48.6238852,18.4563608 48.9572062,18.1926926 49.2466043,17.8404418 C49.5360025,17.488191 49.7679315,17.0481895 49.9419809,16.5200212 C50.1156198,15.991853 50.202234,15.3850833 50.202234,14.700544 L50.202234,7.33488443 L53.4755117,7.33488443 L53.4755117,21.2444237 L50.3471383,21.2444237 Z" id="Fill-7"></path>
                    <path d="M66.8863451,11.7070362 C66.654416,11.1984143 66.3650179,10.7879403 66.0173296,10.4747822 C65.6696414,10.1616242 65.2833667,9.93704874 64.858916,9.79980818 C64.4336444,9.66298349 64.028487,9.59436321 63.6422123,9.59436321 C63.0822988,9.59436321 62.5847802,9.71164151 62.1504778,9.94661399 C61.7161753,10.1811706 61.3442679,10.5088844 61.0355765,10.9297555 C60.7264747,11.3502107 60.4900302,11.8488514 60.3258327,12.4260936 C60.1616352,13.0033357 60.0795364,13.6246612 60.0795364,14.2896541 C60.0795364,14.9741934 60.1616352,15.6000936 60.3258327,16.1677704 C60.4900302,16.7346156 60.7219593,17.2286816 61.0207988,17.6495527 C61.3200488,18.0700079 61.6825148,18.3977217 62.1069654,18.6326942 C62.5318265,18.8676667 63.0145673,18.9845291 63.5555981,18.9845291 C63.9607556,18.9845291 64.3761753,18.9163247 64.8006259,18.7790841 C65.225487,18.6422594 65.6212031,18.4172681 65.9881846,18.1041101 C66.355166,17.7913679 66.654416,17.3854686 66.8863451,16.8864119 C67.1178636,16.3877712 67.2336228,15.7664458 67.2336228,15.0232673 L67.2336228,13.5560409 C67.2336228,12.8319929 67.1178636,12.215658 66.8863451,11.7070362 M65.5682494,7.58441274 C66.2730673,8.00486792 66.8284654,8.50849921 67.2336228,9.09572248 L67.2336228,0.703253931 L70.5069006,0.703253931 L70.5069006,21.2444237 L67.3789377,21.2444237 L67.3789377,19.1903899 C67.1855951,19.5031321 66.953666,19.806309 66.6835611,20.0999206 C66.4130457,20.3935322 66.0945025,20.6526258 65.7279315,20.8776171 C65.36095,21.1026085 64.9406043,21.2831006 64.4677154,21.4203412 C63.994416,21.5571659 63.4587216,21.6257862 62.8602216,21.6257862 C61.9912062,21.6257862 61.1800704,21.4544434 60.4272247,21.1121737 C59.6739685,20.7699041 59.0225148,20.2808286 58.4720426,19.6449473 C57.9215704,19.009066 57.4872679,18.2413506 57.1687247,17.3413852 C56.8501815,16.4414198 56.6909099,15.4241761 56.6909099,14.2896541 C56.6909099,13.1551321 56.8501815,12.1378884 57.1687247,11.237923 C57.4872679,10.3375417 57.9314222,9.57024214 58.5011877,8.93436085 C59.0705426,8.29847956 59.7367741,7.80898821 60.4994716,7.46671855 C61.2621691,7.1244489 62.0876722,6.95352201 62.9759809,6.95352201 C63.999342,6.95352201 64.863842,7.16354167 65.5682494,7.58441274" id="Fill-8"></path>
                    <path d="M74.6780926,21.2444237 L77.9801049,21.2444237 L77.9801049,7.33488443 L74.6780926,7.33488443 L74.6780926,21.2444237 Z M74.8665093,0.893727201 C75.2429321,0.531911164 75.7305988,0.351003145 76.3290988,0.351003145 C76.9280093,0.351003145 77.4152654,0.531911164 77.7920988,0.893727201 C78.1685216,1.25554324 78.3565278,1.74960928 78.3565278,2.37550943 C78.3565278,2.94277044 78.173037,3.42228066 77.806466,3.81362421 C77.4394846,4.20496777 76.9473025,4.4004316 76.3290988,4.4004316 C75.7113056,4.4004316 75.218713,4.20496777 74.8517315,3.81362421 C74.4851605,3.42228066 74.3016698,2.94277044 74.3016698,2.37550943 C74.3016698,1.74960928 74.4900864,1.25554324 74.8665093,0.893727201 L74.8665093,0.893727201 Z" id="Fill-9"></path>
                    <path d="M89.6235981,18.6913333 C90.0677525,18.4368145 90.434734,18.0945448 90.7241321,17.6641085 C91.0139407,17.2336722 91.231092,16.7300409 91.3759963,16.1532146 C91.5204901,15.5755566 91.5931475,14.954647 91.5931475,14.2896541 C91.5931475,13.6246612 91.5204901,13.0033357 91.3759963,12.4260936 C91.231092,11.8488514 91.0139407,11.3452201 90.7241321,10.9151997 C90.434734,10.4847634 90.0677525,10.1420778 89.6235981,9.88797484 C89.1794438,9.63345597 88.6581167,9.50619654 88.0596167,9.50619654 C87.4611167,9.50619654 86.9443049,9.63345597 86.5100025,9.88797484 C86.0752895,10.1420778 85.713234,10.4847634 85.4238358,10.9151997 C85.1344377,11.3452201 84.9168759,11.8488514 84.7719716,12.4260936 C84.6274778,13.0033357 84.5548204,13.6246612 84.5548204,14.2896541 C84.5548204,14.954647 84.6274778,15.5755566 84.7719716,16.1532146 C84.9168759,16.7300409 85.1344377,17.2336722 85.4238358,17.6641085 C85.713234,18.0945448 86.0752895,18.4368145 86.5100025,18.6913333 C86.9443049,18.9454363 87.4611167,19.0726958 88.0596167,19.0726958 C88.6581167,19.0726958 89.1794438,18.9454363 89.6235981,18.6913333 M90.926916,7.48169025 C91.7766383,7.83352516 92.5007494,8.33258176 93.0992494,8.9780283 C93.6977494,9.62389072 94.1566815,10.3965967 94.4752247,11.2965621 C94.7937679,12.1961116 94.9530395,13.193809 94.9530395,14.2896541 C94.9530395,15.3850833 94.7937679,16.3827807 94.4752247,17.2827461 C94.1566815,18.1827115 93.6977494,18.9554175 93.0992494,19.600864 C92.5007494,20.2467264 91.7766383,20.7453671 90.926916,21.0976179 C90.0776043,21.4494528 89.1215642,21.6257862 88.0596167,21.6257862 C86.9976691,21.6257862 86.041629,21.4494528 85.1919068,21.0976179 C84.3421846,20.7453671 83.6234099,20.2467264 83.0339407,19.600864 C82.4452926,18.9554175 81.9916969,18.1827115 81.6727432,17.2827461 C81.3542,16.3827807 81.1949284,15.3850833 81.1949284,14.2896541 C81.1949284,13.193809 81.3542,12.1961116 81.6727432,11.2965621 C81.9916969,10.3965967 82.4452926,9.62389072 83.0339407,8.9780283 C83.6234099,8.33258176 84.3421846,7.83352516 85.1919068,7.48169025 C86.041629,7.12943947 86.9976691,6.95352201 88.0596167,6.95352201 C89.1215642,6.95352201 90.0776043,7.12943947 90.926916,7.48169025" id="Fill-10"></path>
                </g>
                <g id="Page-1" transform="translate(0.000000, 0.415881)" fill="url(#linearGradient-1)">
                    <path d="M0.149830247,3.75456918 L20.1692037,3.75456918 L20.1692037,0.328129717 L0.149830247,0.328129717 L0.149830247,3.75456918 Z M13.1895772,9.47334198 L24.7219907,9.47334198 L24.7219907,6.04690252 L13.1895772,6.04690252 L13.1895772,9.47334198 Z M4.70220679,9.47334198 L10.7106049,9.47334198 L10.7106049,6.04690252 L4.70220679,6.04690252 L4.70220679,9.47334198 Z M18.7144136,15.1921148 L24.7219907,15.1921148 L24.7219907,11.7652594 L18.7144136,11.7652594 L18.7144136,15.1921148 Z M4.70220679,15.1921148 L16.2350309,15.1921148 L16.2350309,11.7652594 L4.70220679,11.7652594 L4.70220679,15.1921148 Z M0.149830247,20.9108876 L20.1692037,20.9108876 L20.1692037,17.4840322 L0.149830247,17.4840322 L0.149830247,20.9108876 Z" id="Mask"></path>
                </g>
            </g>
        </g>
    </g>
</svg>