<?xml version="1.0" encoding="UTF-8"?>
<svg width="15px" height="16px" viewBox="0 0 15 16" version="1.1" xmlns="http://www.w3.org/2000/svg" xmlns:xlink="http://www.w3.org/1999/xlink">
    <!-- Generator: Sketch 44.1 (41455) - http://www.bohemiancoding.com/sketch -->
    <title>I</title>
    <desc>Created with Sketch.</desc>
    <defs></defs>
    <g id="ABOUT-US" stroke="none" stroke-width="1" fill="none" fill-rule="evenodd">
        <g id="1680_About" transform="translate(-904.000000, -3701.000000)" fill="#FFFFFF">
            <g id="Group-10" transform="translate(-21.000000, 3160.000000)">
                <g id="Group-6" transform="translate(892.000000, 212.000000)">
                    <g id="Group-7" transform="translate(33.000000, 329.000000)">
                        <path d="M2.22,0.044 C2.76133604,0.044 3.2186648,0.23533142 3.592,0.618 C3.9653352,1.00066858 4.152,1.46266396 4.152,2.004 C4.152,2.54533604 3.9653352,3.0026648 3.592,3.376 C3.2186648,3.7493352 2.76133604,3.936 2.22,3.936 C1.67866396,3.936 1.22600182,3.7493352 0.862,3.376 C0.49799818,3.0026648 0.316,2.54533604 0.316,2.004 C0.316,1.46266396 0.49799818,1.00066858 0.862,0.618 C1.22600182,0.23533142 1.67866396,0.044 2.22,0.044 Z M8.436,5.084 L8.436,5.588 C9.03333632,5.28933184 9.7053296,5.15866648 10.452,5.196 C11.1986704,5.23333352 11.8706637,5.40133184 12.468,5.7 C13.1026698,6.05466844 13.6113314,6.56799664 13.994,7.24 C14.3766686,7.91200336 14.568,8.60266312 14.568,9.312 L14.568,15.92 L11.488,15.92 L11.488,9.312 C11.488,9.16266592 11.4320006,8.98533436 11.32,8.78 C11.2079994,8.57466564 11.0866673,8.45333352 10.956,8.416 C10.6386651,8.24799916 10.3306682,8.18266648 10.032,8.22 C9.73333184,8.25733352 9.46266788,8.33199944 9.22,8.444 C8.9399986,8.57466732 8.67866788,8.75199888 8.436,8.976 L8.436,15.92 L5.3,15.92 L5.3,5.084 L8.436,5.084 Z M0.652,15.92 L0.652,5.084 L3.788,5.084 L3.788,15.92 L0.652,15.92 Z" id="I"></path>
                    </g>
                </g>
            </g>
        </g>
    </g>
</svg>